<svg width="17" height="17" viewBox="0 0 17 17" fill="none" xmlns="http://www.w3.org/2000/svg">
<g clip-path="url(#clip0_41_134)">
<g clip-path="url(#clip1_41_134)">
<g clip-path="url(#clip2_41_134)">
<path d="M8.09131 0.75C3.67997 0.75 0.0913086 4.33866 0.0913086 8.75C0.0913086 13.1614 3.67997 16.75 8.09131 16.75C12.5027 16.75 16.0913 13.1614 16.0913 8.75C16.0913 4.33866 12.5027 0.75 8.09131 0.75ZM8.03064 11.0294C7.77264 11.2874 7.43331 11.416 7.09264 11.416C6.75197 11.416 6.40931 11.286 6.14864 11.026L4.29397 9.22864L5.22264 8.27066L7.08464 10.0754L10.9573 6.27466L11.8933 7.22466L8.03064 11.0294Z" fill="white"/>
</g>
</g>
</g>
<defs>
<clipPath id="clip0_41_134">
<rect width="16" height="16" fill="white" transform="translate(0.0913086 0.75)"/>
</clipPath>
<clipPath id="clip1_41_134">
<rect width="16" height="16" fill="white" transform="translate(0.0913086 0.75)"/>
</clipPath>
<clipPath id="clip2_41_134">
<rect width="16" height="16" fill="white" transform="translate(0.0913086 0.75)"/>
</clipPath>
</defs>
</svg>
