<svg width="1024" height="65" viewBox="0 0 1024 65" fill="none" xmlns="http://www.w3.org/2000/svg">
<g clip-path="url(#clip0_41_21)">
<path d="M32.5591 -0.308105L34.6712 30.0475L65.0268 32.1596L34.6712 34.2717L32.5591 64.6274L30.4469 34.2717L0.0913086 32.1596L30.4469 30.0475L32.5591 -0.308105Z" fill="#ADC767"/>
<path d="M47.9046 16.8101L33.0777 32.1578L47.9046 47.5057L32.5568 32.6788L17.209 47.5057L32.0359 32.1578L17.209 16.8101L32.5568 31.637L47.9046 16.8101Z" fill="#ADC767"/>
<path d="M34.507 30.2119H30.6108V34.108H34.507V30.2119Z" fill="#F1F1F1"/>
<path d="M139.011 -0.308105L141.123 30.0475L171.478 32.1596L141.123 34.2717L139.011 64.6274L136.899 34.2717L106.543 32.1596L136.899 30.0475L139.011 -0.308105Z" fill="#ADC767"/>
<path d="M154.357 16.8101L139.529 32.1578L154.357 47.5057L139.008 32.6788L123.66 47.5057L138.488 32.1578L123.66 16.8101L139.008 31.637L154.357 16.8101Z" fill="#ADC767"/>
<path d="M140.959 30.2119H137.062V34.108H140.959V30.2119Z" fill="#F1F1F1"/>
<path d="M245.462 -0.308105L247.574 30.0475L277.93 32.1596L247.574 34.2717L245.462 64.6274L243.35 34.2717L212.995 32.1596L243.35 30.0475L245.462 -0.308105Z" fill="#ADC767"/>
<path d="M260.808 16.8101L245.981 32.1578L260.808 47.5057L245.46 32.6788L230.112 47.5057L244.94 32.1578L230.112 16.8101L245.46 31.637L260.808 16.8101Z" fill="#ADC767"/>
<path d="M247.41 30.2119H243.514V34.108H247.41V30.2119Z" fill="#F1F1F1"/>
<path d="M351.914 -0.308105L354.026 30.0475L384.382 32.1596L354.026 34.2717L351.914 64.6274L349.802 34.2717L319.446 32.1596L349.802 30.0475L351.914 -0.308105Z" fill="#FCCD26"/>
<path d="M367.26 16.8101L352.432 32.1578L367.26 47.5057L351.912 32.6788L336.563 47.5057L351.391 32.1578L336.563 16.8101L351.912 31.637L367.26 16.8101Z" fill="#FCCD26"/>
<path d="M353.862 30.2119H349.966V34.108H353.862V30.2119Z" fill="#F1F1F1"/>
<path d="M458.365 -0.308105L460.477 30.0475L490.833 32.1596L460.477 34.2717L458.365 64.6274L456.253 34.2717L425.898 32.1596L456.253 30.0475L458.365 -0.308105Z" fill="#FCCD26"/>
<path d="M473.712 16.8101L458.884 32.1578L473.712 47.5057L458.363 32.6788L443.015 47.5057L457.843 32.1578L443.015 16.8101L458.363 31.637L473.712 16.8101Z" fill="#FCCD26"/>
<path d="M460.314 30.2119H456.417V34.108H460.314V30.2119Z" fill="#F1F1F1"/>
<path d="M564.817 -0.308105L566.929 30.0475L597.285 32.1596L566.929 34.2717L564.817 64.6274L562.705 34.2717L532.349 32.1596L562.705 30.0475L564.817 -0.308105Z" fill="#FCCD26"/>
<path d="M580.163 16.8101L565.336 32.1578L580.163 47.5057L564.815 32.6788L549.467 47.5057L564.294 32.1578L549.467 16.8101L564.815 31.637L580.163 16.8101Z" fill="#FCCD26"/>
<path d="M566.765 30.2119H562.869V34.108H566.765V30.2119Z" fill="#F1F1F1"/>
<path d="M671.269 -0.308105L673.381 30.0475L703.737 32.1596L673.381 34.2717L671.269 64.6274L669.157 34.2717L638.801 32.1596L669.157 30.0475L671.269 -0.308105Z" fill="#B51A1A"/>
<path d="M686.615 16.8101L671.787 32.1578L686.615 47.5057L671.267 32.6788L655.918 47.5057L670.746 32.1578L655.918 16.8101L671.267 31.637L686.615 16.8101Z" fill="#B51A1A"/>
<path d="M673.217 30.2119H669.321V34.108H673.217V30.2119Z" fill="#F1F1F1"/>
<path d="M777.72 -0.308105L779.832 30.0475L810.188 32.1596L779.832 34.2717L777.72 64.6274L775.608 34.2717L745.253 32.1596L775.608 30.0475L777.72 -0.308105Z" fill="#B51A1A"/>
<path d="M793.067 16.8101L778.239 32.1578L793.067 47.5057L777.718 32.6788L762.37 47.5057L777.198 32.1578L762.37 16.8101L777.718 31.637L793.067 16.8101Z" fill="#B51A1A"/>
<path d="M779.668 30.2119H775.772V34.108H779.668V30.2119Z" fill="#F1F1F1"/>
<path d="M884.172 -0.308105L886.284 30.0475L916.64 32.1596L886.284 34.2717L884.172 64.6274L882.06 34.2717L851.704 32.1596L882.06 30.0475L884.172 -0.308105Z" fill="#B51A1A"/>
<path d="M899.518 16.8101L884.691 32.1578L899.518 47.5057L884.17 32.6788L868.822 47.5057L883.649 32.1578L868.822 16.8101L884.17 31.637L899.518 16.8101Z" fill="#B51A1A"/>
<path d="M886.12 30.2119H882.224V34.108H886.12V30.2119Z" fill="#F1F1F1"/>
<path d="M990.624 -0.308105L992.736 30.0475L1023.09 32.1596L992.736 34.2717L990.624 64.6274L988.511 34.2717L958.156 32.1596L988.511 30.0475L990.624 -0.308105Z" fill="#B51A1A"/>
<path d="M1005.97 16.8101L991.142 32.1578L1005.97 47.5057L990.621 32.6788L975.273 47.5057L990.101 32.1578L975.273 16.8101L990.621 31.637L1005.97 16.8101Z" fill="#B51A1A"/>
<path d="M992.572 30.2119H988.676V34.108H992.572V30.2119Z" fill="#F1F1F1"/>
</g>
<defs>
<clipPath id="clip0_41_21">
<rect width="1023" height="64.9355" fill="white" transform="translate(0.0913086 -0.308105)"/>
</clipPath>
</defs>
</svg>
